# Blender 5.1.2
# www.blender.org
mtllib flywheel.mtl
o Cube.004
v -1.347760 0.225000 1.265364
v -0.265368 0.225000 2.347759
v 2.347759 0.225000 1.265369
v 2.499999 0.775000 0.500000
v 1.265368 0.775000 -1.347759
v -0.914213 0.775000 -0.914215
v -1.347760 0.775000 1.265364
v -1.500001 0.775000 0.499998
v -1.347758 0.775000 -0.265369
v 0.499998 0.775000 2.500000
v 1.265366 0.775000 2.347759
v 1.914212 0.775000 1.914216
v 2.347759 0.775000 1.265369
v 2.347759 0.225000 -0.265366
v 1.265368 0.225000 -1.347759
v 1.914215 0.775000 -0.914213
v 0.500002 0.225000 -1.500000
v -0.265366 0.225000 -1.347759
v -0.914213 0.225000 -0.914215
v -1.347758 0.225000 -0.265369
v -1.499999 0.225000 0.500000
v -0.914213 0.775000 1.914213
v -0.265366 0.775000 2.347759
v 1.265366 0.225000 2.347759
v 0.500000 0.225000 0.500000
v 0.500000 0.225000 2.500000
v 2.499999 0.225000 0.500000
v 1.914212 0.225000 -0.914213
v -0.914215 0.225000 1.914213
v 1.914212 0.225000 1.914213
v -0.648050 0.225000 -0.648053
v -1.123588 0.225000 1.172510
v 2.123588 0.225000 0.500000
v 0.500000 0.225000 -1.123589
v -0.648052 0.225000 1.648051
v 1.172514 0.225000 -1.123589
v 1.648050 0.225000 1.648051
v -1.123588 0.225000 -0.172514
v 2.123588 0.225000 1.172512
v -0.172514 0.225000 2.123589
v 1.648050 0.225000 -0.648051
v 1.172512 0.225000 2.123589
v 2.123588 0.225000 -0.172512
v -0.172512 0.225000 -1.123589
v -1.123588 0.225000 0.500000
v 0.500000 0.225000 2.123589
v 0.500000 0.775000 0.500000
v -0.265366 0.775000 -1.347761
v 2.347759 0.775000 -0.265366
v 0.500000 0.775000 -1.500000
v 2.123588 0.775000 0.500000
v 1.648050 0.775000 1.648051
v -1.123588 0.775000 -0.172514
v 1.648050 0.775000 -0.648051
v 1.172512 0.775000 2.123589
v 2.123588 0.775000 -0.172512
v -0.172512 0.775000 -1.123589
v 0.500000 0.775000 2.123589
v 1.717691 0.225000 1.004384
v 1.361037 0.225000 1.361039
v 1.361039 0.225000 -0.361039
v 1.004384 0.225000 1.717692
v -0.004384 0.225000 -0.717692
v 0.500000 0.225000 1.717692
v 1.717691 0.225000 -0.004384
v -0.361039 0.225000 -0.361039
v -0.717691 0.225000 0.500000
v -0.717691 0.225000 1.004384
v 1.717691 0.225000 0.500000
v -0.361039 0.225000 1.361037
v -0.717691 0.225000 -0.004386
v 0.500000 0.225000 -0.717692
v -0.004386 0.225000 1.717692
v 1.004386 0.225000 -0.717692
v 2.123588 0.775000 1.172510
v -1.123588 0.775000 0.500000
v 0.500000 0.775000 -1.123589
v -0.648050 0.775000 1.648051
v -1.123588 0.775000 1.172512
v -0.648050 0.775000 -0.648051
v -0.172512 0.775000 2.123589
v 1.172512 0.775000 -1.123589
v -0.717691 0.775000 1.004384
v -0.361036 0.775000 1.361039
v -0.361039 0.775000 -0.361039
v -0.004384 0.775000 1.717692
v 1.004384 0.775000 -0.717692
v 0.500000 0.775000 1.717692
v -0.717691 0.775000 -0.004384
v 1.361039 0.775000 -0.361039
v 1.717691 0.775000 0.500000
v 1.717691 0.775000 1.004384
v -0.717691 0.775000 0.500000
v 1.361039 0.775000 1.361037
v 1.717691 0.775000 -0.004386
v 0.500000 0.775000 -0.717692
v 1.004386 0.775000 1.717690
v -0.004386 0.775000 -0.717692
v 0.625000 0.000000 0.375000
v 0.625000 0.000000 0.625000
v 0.625000 1.000000 0.375000
v 0.375000 0.000000 0.375000
v 0.375000 1.000000 0.375000
v 0.375000 0.000000 0.625000
v 0.375000 1.000000 0.625000
v 0.625000 1.000000 0.625000
v 0.750000 0.937500 0.750000
v 0.750000 0.062500 0.750000
v 0.250000 0.937500 0.750000
v 0.750000 0.937500 0.250000
v 0.750000 0.062500 0.250000
v 0.250000 0.937500 0.250000
v 0.250000 0.062500 0.250000
v 0.250000 0.062500 0.750000
vn -0.0000 -1.0000 -0.0000
vn -0.0000 1.0000 -0.0000
vn -0.5556 -0.0000 0.8315
vn -0.9808 -0.0000 0.1951
vn -0.9808 -0.0000 -0.1951
vn -0.8315 -0.0000 0.5556
vn -0.8315 -0.0000 -0.5556
vn -0.1951 -0.0000 0.9808
vn 0.1951 -0.0000 0.9808
vn 0.5556 -0.0000 0.8315
vn 0.8315 -0.0000 0.5556
vn 0.9808 -0.0000 0.1951
vn 0.5556 -0.0000 -0.8315
vn -0.5556 -0.0000 -0.8315
vn -0.1951 -0.0000 -0.9808
vn 0.1951 -0.0000 -0.9808
vn 0.9808 -0.0000 -0.1951
vn 0.8315 -0.0000 -0.5556
vn 1.0000 -0.0000 -0.0000
vn -0.0000 -0.0000 -1.0000
vn -1.0000 -0.0000 -0.0000
vn -0.0000 -0.0000 1.0000
vt 0.676776 0.926777
vt 0.500000 0.961940
vt 0.500000 0.875000
vt 0.655330 0.875000
vt 0.926777 0.676777
vt 0.826640 0.826641
vt 0.765165 0.765165
vt 0.875000 0.655330
vt 0.926777 0.323224
vt 0.961940 0.500000
vt 0.875000 0.500000
vt 0.875000 0.344670
vt 0.676777 0.073224
vt 0.826641 0.173360
vt 0.765165 0.234835
vt 0.655330 0.125000
vt 0.323224 0.073223
vt 0.500000 0.038061
vt 0.500000 0.125000
vt 0.344670 0.125000
vt 0.073223 0.323223
vt 0.173359 0.173359
vt 0.234835 0.234835
vt 0.125000 0.344670
vt 0.073223 0.676776
vt 0.038060 0.500000
vt 0.125000 0.500000
vt 0.125000 0.655330
vt 0.323223 0.926777
vt 0.173359 0.826640
vt 0.234835 0.765165
vt 0.344669 0.875000
vt 0.500000 0.500000
vt 0.301126 0.698874
vt 0.218750 0.616497
vt 0.698874 0.698874
vt 0.616497 0.781250
vt 0.500000 0.218750
vt 0.616498 0.218750
vt 0.218750 0.500000
vt 0.218750 0.383502
vt 0.500000 0.781250
vt 0.616498 0.781250
vt 0.383502 0.781250
vt 0.344670 0.875000
vt 0.826641 0.173359
vt 0.323223 0.926776
vt 0.383502 0.218750
vt 0.781250 0.616498
vt 0.301126 0.301126
vt 0.781250 0.383503
vt 0.781250 0.500000
vt 0.698874 0.301126
vt 0.474316 0.000001
vt 0.474315 1.000000
vt 0.000000 1.000000
vt 0.000000 0.000000
vt 0.474314 1.000000
vt 0.000000 1.000000
vt 0.000000 0.000000
vt 0.474315 0.000000
vt 0.000000 0.000000
vt 0.474316 -0.000000
vt 0.474315 1.000000
vt 0.000000 1.000000
vt 0.474318 1.000000
vt 0.000000 1.000000
vt 0.000000 0.000000
vt 0.474317 0.000000
vt 0.000000 1.000000
vt 0.000000 0.000000
vt 0.474316 0.000000
vt 0.474316 1.000000
vt 0.000001 1.000000
vt 0.474316 -0.000000
vt 0.474315 1.000000
vt 0.474316 0.000000
vt 0.474316 1.000000
vt -0.000000 1.000000
vt 0.000001 0.000000
vt 0.000000 1.000000
vt 0.000001 -0.000000
vt 0.474316 -0.000000
vt 0.474316 1.000000
vt 0.000000 1.000000
vt 0.474316 0.000000
vt 0.474315 1.000000
vt 0.474317 0.000000
vt 0.474316 1.000000
vt 0.000001 0.000000
vt 0.474316 0.000000
vt 0.000001 -0.000000
vt 0.474316 0.000000
vt 0.474316 1.000000
vt 0.000000 1.000000
vt 0.000000 0.000000
vt 0.474316 0.000000
vt 0.474316 1.000000
vt 0.000002 1.000000
vt 0.000001 1.000000
vt 0.000000 -0.000000
vt 0.474316 -0.000000
vt 0.474317 1.000000
vt 0.474315 0.000000
vt 0.474315 1.000000
vt 0.000000 0.000000
vt 0.474316 0.000000
vt 0.474315 1.000000
vt -0.000000 1.000000
vt 0.375000 0.375000
vt 0.625000 0.375000
vt 0.625000 0.625000
vt 0.375000 0.625000
vt 0.375000 0.000000
vt 0.375000 1.000000
vt 0.625000 1.000000
vt 0.625000 0.000000
vt 0.250000 0.062500
vt 0.750000 0.062500
vt 0.750000 0.937500
vt 0.250000 0.937500
vt 0.250000 0.250000
vt 0.750000 0.250000
vt 0.750000 0.750000
vt 0.250000 0.750000
s 0
usemtl flywheel_insert
f 24/1/1 26/2/1 46/3/1 42/4/1
f 3/5/1 30/6/1 37/7/1 39/8/1
f 14/9/1 27/10/1 33/11/1 43/12/1
f 15/13/1 28/14/1 41/15/1 36/16/1
f 18/17/1 17/18/1 34/19/1 44/20/1
f 20/21/1 19/22/1 31/23/1 38/24/1
f 1/25/1 21/26/1 45/27/1 32/28/1
f 2/29/1 29/30/1 35/31/1 40/32/1
f 25/33/1 70/34/1 68/35/1
f 26/2/1 2/29/1 40/32/1 46/3/1
f 25/33/1 60/36/1 62/37/1
f 27/10/1 3/5/1 39/8/1 33/11/1
f 28/14/1 14/9/1 43/12/1 41/15/1
f 25/33/1 72/38/1 74/39/1
f 19/22/1 18/17/1 44/20/1 31/23/1
f 25/33/1 67/40/1 71/41/1
f 38/4/1 31/3/1 66/42/1 71/43/1
f 40/4/1 35/3/1 70/42/1 73/37/1
f 32/28/1 35/31/1 29/30/1 1/25/1
f 42/4/1 37/7/1 30/6/1 24/1/1
f 41/3/1 43/32/1 65/44/1 61/42/1
f 31/3/1 44/45/1 63/44/1 66/42/1
f 42/4/1 46/3/1 64/42/1 62/37/1
f 43/4/1 33/3/1 69/42/1 65/37/1
f 44/4/1 34/3/1 72/42/1 63/43/1
f 32/4/1 45/3/1 67/42/1 68/37/1
f 46/3/1 40/32/1 73/44/1 64/42/1
f 33/3/1 39/45/1 59/44/1 69/42/1
f 36/16/1 34/19/1 17/18/1 15/13/1
f 38/24/1 45/27/1 21/26/1 20/21/1
f 39/4/1 37/3/1 60/42/1 59/37/1
f 36/4/1 41/3/1 61/42/1 74/37/1
f 11/1/2 55/4/2 58/3/2 10/2/2
f 13/5/2 75/8/2 52/7/2 12/6/2
f 49/9/2 56/12/2 51/11/2 4/10/2
f 5/13/2 82/16/2 54/15/2 16/46/2
f 48/17/2 57/20/2 77/19/2 50/18/2
f 9/21/2 53/24/2 80/23/2 6/22/2
f 7/25/2 79/28/2 76/27/2 8/26/2
f 23/47/2 81/32/2 78/31/2 22/30/2
f 55/4/2 52/3/2 94/42/2 97/37/2
f 10/2/2 58/3/2 81/32/2 23/47/2
f 79/4/2 78/3/2 84/42/2 83/37/2
f 4/10/2 51/11/2 75/8/2 13/5/2
f 16/46/2 54/15/2 56/12/2 49/9/2
f 47/33/2 94/34/2 92/35/2
f 6/22/2 80/23/2 57/20/2 48/17/2
f 47/33/2 84/36/2 86/37/2
f 54/3/2 82/45/2 87/44/2 90/42/2
f 56/4/2 54/3/2 90/42/2 95/43/2
f 79/28/2 7/25/2 22/30/2 78/31/2
f 55/4/2 11/1/2 12/6/2 52/7/2
f 53/4/2 76/3/2 93/42/2 89/37/2
f 81/4/2 58/3/2 88/42/2 86/37/2
f 57/4/2 80/3/2 85/42/2 98/37/2
f 75/4/2 51/3/2 91/42/2 92/37/2
f 47/33/2 96/38/2 98/39/2
f 80/3/2 53/32/2 89/44/2 85/42/2
f 76/3/2 79/45/2 83/44/2 93/42/2
f 58/3/2 55/32/2 97/44/2 88/42/2
f 82/16/2 5/13/2 50/18/2 77/19/2
f 53/24/2 9/21/2 8/26/2 76/27/2
f 47/33/2 91/40/2 95/41/2
f 82/4/2 77/3/2 96/42/2 87/43/2
f 62/37/1 64/42/1 25/33/1
f 63/48/1 72/38/1 25/33/1
f 64/42/1 73/44/1 25/33/1
f 59/49/1 60/36/1 25/33/1
f 74/44/1 72/42/1 34/3/1 36/45/1
f 71/44/1 67/42/1 45/3/1 38/45/1
f 73/44/1 70/34/1 25/33/1
f 66/50/1 63/48/1 25/33/1
f 65/51/1 69/52/1 25/33/1
f 68/35/1 67/40/1 25/33/1
f 69/52/1 59/49/1 25/33/1
f 74/39/1 61/53/1 25/33/1
f 68/44/1 70/42/1 35/3/1 32/45/1
f 62/44/1 60/42/1 37/3/1 42/45/1
f 71/41/1 66/50/1 25/33/1
f 61/53/1 65/51/1 25/33/1
f 86/37/2 88/42/2 47/33/2
f 87/48/2 96/38/2 47/33/2
f 88/42/2 97/44/2 47/33/2
f 83/49/2 84/36/2 47/33/2
f 98/44/2 96/42/2 77/3/2 57/45/2
f 95/44/2 91/42/2 51/3/2 56/45/2
f 97/44/2 94/34/2 47/33/2
f 90/50/2 87/48/2 47/33/2
f 89/51/2 93/52/2 47/33/2
f 92/35/2 91/40/2 47/33/2
f 93/52/2 83/49/2 47/33/2
f 98/39/2 85/53/2 47/33/2
f 92/44/2 94/42/2 52/3/2 75/45/2
f 86/44/2 84/42/2 78/3/2 81/45/2
f 95/41/2 90/50/2 47/33/2
f 85/53/2 89/51/2 47/33/2
s 1
usemtl m_axis
f 106/114/19 100/115/19 99/116/19 101/117/19
f 101/114/20 99/115/20 102/116/20 103/117/20
f 103/114/21 102/115/21 104/116/21 105/117/21
f 105/114/22 104/115/22 100/116/22 106/117/22
usemtl m_axis_top
f 102/110/1 99/111/1 100/112/1 104/113/1
f 103/110/2 105/113/2 106/112/2 101/111/2
s 0
usemtl flywheel_plates
f 22/54/3 29/55/3 2/56/3 23/57/3
f 21/58/4 1/59/4 7/60/4 8/61/4
f 20/62/5 21/63/5 8/64/5 9/65/5
f 22/66/6 7/67/6 1/68/6 29/69/6
f 20/70/7 9/71/7 6/72/7 19/73/7
f 23/74/8 2/62/8 26/75/8 10/76/8
f 24/77/9 11/78/9 10/79/9 26/80/9
f 30/81/10 12/82/10 11/83/10 24/84/10
f 3/85/11 13/68/11 12/86/11 30/87/11
f 3/71/12 27/88/12 4/89/12 13/70/12
f 28/90/13 15/91/13 5/84/13 16/79/13
f 18/92/14 19/93/14 6/94/14 48/95/14
f 17/96/15 18/97/15 48/98/15 50/99/15
f 17/100/16 50/101/16 5/102/16 15/103/16
f 14/104/17 49/105/17 4/70/17 27/71/17
f 14/106/18 28/107/18 16/108/18 49/109/18
s 1
usemtl m_spruce_log_top
f 110/118/19 107/119/19 108/120/19 111/121/19
f 107/118/22 109/119/22 114/120/22 108/121/22
f 109/122/2 107/123/2 110/124/2 112/125/2
f 112/118/20 110/119/20 111/120/20 113/121/20
f 109/118/21 112/119/21 113/120/21 114/121/21
f 113/122/1 111/123/1 108/124/1 114/125/1
